# xmcd
#
# Track frame offsets: 
#        150
#        12407
#        23105
#        36372
#        57398
#        66650
#        80759
#        91882
#        104171
#        114074
#        124219
#        134956
#        152775
#
# Disc length: 2325 seconds
#
# Revision: 5
# Processed by: cddbd v1.5.2PL0 Copyright (c) Steve Scherf et al.
# Submitted via: ExactAudioCopy v0.99pb4
#
DISCID=bf09130d
DTITLE=Holly Golightly - Serial Girlfriend
DYEAR=1998
DGENRE=Garage Rock
TTITLE0=I Can't Be Trusted
TTITLE1=You Shine
TTITLE2=Want No Other
TTITLE3=Your Love Is Mine
TTITLE4=Grandstand
TTITLE5=Clean In Two
TTITLE6=Down Down Down
TTITLE7=Come The Day
TTITLE8=Serial Girlfriend
TTITLE9=My Own Sake
TTITLE10=Where Can I Go
TTITLE11='Til I Get
TTITLE12=Now
EXTD=
EXTT0=
EXTT1=
EXTT2=
EXTT3=
EXTT4=
EXTT5=
EXTT6=
EXTT7=
EXTT8=
EXTT9=
EXTT10=
EXTT11=
EXTT12=
PLAYORDER=
